<?xml version="1.0" encoding="utf-8"?>
<svg xmlns="http://www.w3.org/2000/svg" xmlns:xlink="http://www.w3.org/1999/xlink" width="600" height="400" viewBox="0 0 2400 1600">
<defs>
  <clipPath id="clip850">
    <rect x="0" y="0" width="2400" height="1600"/>
  </clipPath>
</defs>
<path clip-path="url(#clip850)" d="M0 1600 L2400 1600 L2400 0 L0 0  Z" fill="#ffffff" fill-rule="evenodd" fill-opacity="1"/>
<defs>
  <clipPath id="clip851">
    <rect x="480" y="0" width="1681" height="1600"/>
  </clipPath>
</defs>
<path clip-path="url(#clip850)" d="M202.227 1423.18 L2352.76 1423.18 L2352.76 47.2441 L202.227 47.2441  Z" fill="#ffffff" fill-rule="evenodd" fill-opacity="1"/>
<defs>
  <clipPath id="clip852">
    <rect x="202" y="47" width="2152" height="1377"/>
  </clipPath>
</defs>
<polyline clip-path="url(#clip852)" style="stroke:#000000; stroke-linecap:round; stroke-linejoin:round; stroke-width:2; stroke-opacity:0.1; fill:none" points="202.227,1423.18 202.227,47.2441 "/>
<polyline clip-path="url(#clip852)" style="stroke:#000000; stroke-linecap:round; stroke-linejoin:round; stroke-width:2; stroke-opacity:0.1; fill:none" points="739.86,1423.18 739.86,47.2441 "/>
<polyline clip-path="url(#clip852)" style="stroke:#000000; stroke-linecap:round; stroke-linejoin:round; stroke-width:2; stroke-opacity:0.1; fill:none" points="1277.49,1423.18 1277.49,47.2441 "/>
<polyline clip-path="url(#clip852)" style="stroke:#000000; stroke-linecap:round; stroke-linejoin:round; stroke-width:2; stroke-opacity:0.1; fill:none" points="1815.12,1423.18 1815.12,47.2441 "/>
<polyline clip-path="url(#clip852)" style="stroke:#000000; stroke-linecap:round; stroke-linejoin:round; stroke-width:2; stroke-opacity:0.1; fill:none" points="2352.76,1423.18 2352.76,47.2441 "/>
<polyline clip-path="url(#clip852)" style="stroke:#000000; stroke-linecap:round; stroke-linejoin:round; stroke-width:2; stroke-opacity:0.1; fill:none" points="202.227,1423.18 202.227,47.2441 "/>
<polyline clip-path="url(#clip852)" style="stroke:#000000; stroke-linecap:round; stroke-linejoin:round; stroke-width:2; stroke-opacity:0.1; fill:none" points="739.86,1423.18 739.86,47.2441 "/>
<polyline clip-path="url(#clip852)" style="stroke:#000000; stroke-linecap:round; stroke-linejoin:round; stroke-width:2; stroke-opacity:0.1; fill:none" points="1277.49,1423.18 1277.49,47.2441 "/>
<polyline clip-path="url(#clip852)" style="stroke:#000000; stroke-linecap:round; stroke-linejoin:round; stroke-width:2; stroke-opacity:0.1; fill:none" points="1815.12,1423.18 1815.12,47.2441 "/>
<polyline clip-path="url(#clip852)" style="stroke:#000000; stroke-linecap:round; stroke-linejoin:round; stroke-width:2; stroke-opacity:0.1; fill:none" points="2352.76,1423.18 2352.76,47.2441 "/>
<polyline clip-path="url(#clip852)" style="stroke:#000000; stroke-linecap:round; stroke-linejoin:round; stroke-width:2; stroke-opacity:0.1; fill:none" points="202.227,1423.18 2352.76,1423.18 "/>
<polyline clip-path="url(#clip852)" style="stroke:#000000; stroke-linecap:round; stroke-linejoin:round; stroke-width:2; stroke-opacity:0.1; fill:none" points="202.227,1147.99 2352.76,1147.99 "/>
<polyline clip-path="url(#clip852)" style="stroke:#000000; stroke-linecap:round; stroke-linejoin:round; stroke-width:2; stroke-opacity:0.1; fill:none" points="202.227,872.806 2352.76,872.806 "/>
<polyline clip-path="url(#clip852)" style="stroke:#000000; stroke-linecap:round; stroke-linejoin:round; stroke-width:2; stroke-opacity:0.1; fill:none" points="202.227,597.618 2352.76,597.618 "/>
<polyline clip-path="url(#clip852)" style="stroke:#000000; stroke-linecap:round; stroke-linejoin:round; stroke-width:2; stroke-opacity:0.1; fill:none" points="202.227,322.431 2352.76,322.431 "/>
<polyline clip-path="url(#clip852)" style="stroke:#000000; stroke-linecap:round; stroke-linejoin:round; stroke-width:2; stroke-opacity:0.1; fill:none" points="202.227,47.2441 2352.76,47.2441 "/>
<polyline clip-path="url(#clip852)" style="stroke:#000000; stroke-linecap:round; stroke-linejoin:round; stroke-width:2; stroke-opacity:0.1; fill:none" points="202.227,1423.18 2352.76,1423.18 "/>
<polyline clip-path="url(#clip852)" style="stroke:#000000; stroke-linecap:round; stroke-linejoin:round; stroke-width:2; stroke-opacity:0.1; fill:none" points="202.227,1147.99 2352.76,1147.99 "/>
<polyline clip-path="url(#clip852)" style="stroke:#000000; stroke-linecap:round; stroke-linejoin:round; stroke-width:2; stroke-opacity:0.1; fill:none" points="202.227,872.806 2352.76,872.806 "/>
<polyline clip-path="url(#clip852)" style="stroke:#000000; stroke-linecap:round; stroke-linejoin:round; stroke-width:2; stroke-opacity:0.1; fill:none" points="202.227,597.618 2352.76,597.618 "/>
<polyline clip-path="url(#clip852)" style="stroke:#000000; stroke-linecap:round; stroke-linejoin:round; stroke-width:2; stroke-opacity:0.1; fill:none" points="202.227,322.431 2352.76,322.431 "/>
<polyline clip-path="url(#clip852)" style="stroke:#000000; stroke-linecap:round; stroke-linejoin:round; stroke-width:2; stroke-opacity:0.1; fill:none" points="202.227,47.2441 2352.76,47.2441 "/>
<polyline clip-path="url(#clip850)" style="stroke:#000000; stroke-linecap:round; stroke-linejoin:round; stroke-width:4; stroke-opacity:1; fill:none" points="202.227,1423.18 2352.76,1423.18 "/>
<polyline clip-path="url(#clip850)" style="stroke:#000000; stroke-linecap:round; stroke-linejoin:round; stroke-width:4; stroke-opacity:1; fill:none" points="202.227,47.2441 2352.76,47.2441 "/>
<polyline clip-path="url(#clip850)" style="stroke:#000000; stroke-linecap:round; stroke-linejoin:round; stroke-width:4; stroke-opacity:1; fill:none" points="202.227,1423.18 202.227,1404.28 "/>
<polyline clip-path="url(#clip850)" style="stroke:#000000; stroke-linecap:round; stroke-linejoin:round; stroke-width:4; stroke-opacity:1; fill:none" points="739.86,1423.18 739.86,1404.28 "/>
<polyline clip-path="url(#clip850)" style="stroke:#000000; stroke-linecap:round; stroke-linejoin:round; stroke-width:4; stroke-opacity:1; fill:none" points="1277.49,1423.18 1277.49,1404.28 "/>
<polyline clip-path="url(#clip850)" style="stroke:#000000; stroke-linecap:round; stroke-linejoin:round; stroke-width:4; stroke-opacity:1; fill:none" points="1815.12,1423.18 1815.12,1404.28 "/>
<polyline clip-path="url(#clip850)" style="stroke:#000000; stroke-linecap:round; stroke-linejoin:round; stroke-width:4; stroke-opacity:1; fill:none" points="2352.76,1423.18 2352.76,1404.28 "/>
<polyline clip-path="url(#clip850)" style="stroke:#000000; stroke-linecap:round; stroke-linejoin:round; stroke-width:4; stroke-opacity:1; fill:none" points="202.227,47.2441 202.227,66.1417 "/>
<polyline clip-path="url(#clip850)" style="stroke:#000000; stroke-linecap:round; stroke-linejoin:round; stroke-width:4; stroke-opacity:1; fill:none" points="739.86,47.2441 739.86,66.1417 "/>
<polyline clip-path="url(#clip850)" style="stroke:#000000; stroke-linecap:round; stroke-linejoin:round; stroke-width:4; stroke-opacity:1; fill:none" points="1277.49,47.2441 1277.49,66.1417 "/>
<polyline clip-path="url(#clip850)" style="stroke:#000000; stroke-linecap:round; stroke-linejoin:round; stroke-width:4; stroke-opacity:1; fill:none" points="1815.12,47.2441 1815.12,66.1417 "/>
<polyline clip-path="url(#clip850)" style="stroke:#000000; stroke-linecap:round; stroke-linejoin:round; stroke-width:4; stroke-opacity:1; fill:none" points="2352.76,47.2441 2352.76,66.1417 "/>
<path clip-path="url(#clip850)" d="M202.227 1454.1 Q198.616 1454.1 196.788 1457.66 Q194.982 1461.2 194.982 1468.33 Q194.982 1475.44 196.788 1479.01 Q198.616 1482.55 202.227 1482.55 Q205.862 1482.55 207.667 1479.01 Q209.496 1475.44 209.496 1468.33 Q209.496 1461.2 207.667 1457.66 Q205.862 1454.1 202.227 1454.1 M202.227 1450.39 Q208.038 1450.39 211.093 1455 Q214.172 1459.58 214.172 1468.33 Q214.172 1477.06 211.093 1481.67 Q208.038 1486.25 202.227 1486.25 Q196.417 1486.25 193.339 1481.67 Q190.283 1477.06 190.283 1468.33 Q190.283 1459.58 193.339 1455 Q196.417 1450.39 202.227 1450.39 Z" fill="#000000" fill-rule="nonzero" fill-opacity="1" /><path clip-path="url(#clip850)" d="M699.478 1451.02 L717.834 1451.02 L717.834 1454.96 L703.76 1454.96 L703.76 1463.43 Q704.779 1463.08 705.797 1462.92 Q706.816 1462.73 707.834 1462.73 Q713.621 1462.73 717.001 1465.9 Q720.381 1469.08 720.381 1474.49 Q720.381 1480.07 716.908 1483.17 Q713.436 1486.25 707.117 1486.25 Q704.941 1486.25 702.672 1485.88 Q700.427 1485.51 698.02 1484.77 L698.02 1480.07 Q700.103 1481.2 702.325 1481.76 Q704.547 1482.32 707.024 1482.32 Q711.029 1482.32 713.367 1480.21 Q715.705 1478.1 715.705 1474.49 Q715.705 1470.88 713.367 1468.77 Q711.029 1466.67 707.024 1466.67 Q705.149 1466.67 703.274 1467.08 Q701.422 1467.5 699.478 1468.38 L699.478 1451.02 Z" fill="#000000" fill-rule="nonzero" fill-opacity="1" /><path clip-path="url(#clip850)" d="M739.593 1454.1 Q735.982 1454.1 734.154 1457.66 Q732.348 1461.2 732.348 1468.33 Q732.348 1475.44 734.154 1479.01 Q735.982 1482.55 739.593 1482.55 Q743.228 1482.55 745.033 1479.01 Q746.862 1475.44 746.862 1468.33 Q746.862 1461.2 745.033 1457.66 Q743.228 1454.1 739.593 1454.1 M739.593 1450.39 Q745.404 1450.39 748.459 1455 Q751.538 1459.58 751.538 1468.33 Q751.538 1477.06 748.459 1481.67 Q745.404 1486.25 739.593 1486.25 Q733.783 1486.25 730.705 1481.67 Q727.649 1477.06 727.649 1468.33 Q727.649 1459.58 730.705 1455 Q733.783 1450.39 739.593 1450.39 Z" fill="#000000" fill-rule="nonzero" fill-opacity="1" /><path clip-path="url(#clip850)" d="M769.755 1454.1 Q766.144 1454.1 764.315 1457.66 Q762.51 1461.2 762.51 1468.33 Q762.51 1475.44 764.315 1479.01 Q766.144 1482.55 769.755 1482.55 Q773.389 1482.55 775.195 1479.01 Q777.024 1475.44 777.024 1468.33 Q777.024 1461.2 775.195 1457.66 Q773.389 1454.1 769.755 1454.1 M769.755 1450.39 Q775.565 1450.39 778.621 1455 Q781.7 1459.58 781.7 1468.33 Q781.7 1477.06 778.621 1481.67 Q775.565 1486.25 769.755 1486.25 Q763.945 1486.25 760.866 1481.67 Q757.811 1477.06 757.811 1468.33 Q757.811 1459.58 760.866 1455 Q763.945 1450.39 769.755 1450.39 Z" fill="#000000" fill-rule="nonzero" fill-opacity="1" /><path clip-path="url(#clip850)" d="M1222.02 1481.64 L1229.66 1481.64 L1229.66 1455.28 L1221.35 1456.95 L1221.35 1452.69 L1229.61 1451.02 L1234.29 1451.02 L1234.29 1481.64 L1241.92 1481.64 L1241.92 1485.58 L1222.02 1485.58 L1222.02 1481.64 Z" fill="#000000" fill-rule="nonzero" fill-opacity="1" /><path clip-path="url(#clip850)" d="M1261.37 1454.1 Q1257.76 1454.1 1255.93 1457.66 Q1254.12 1461.2 1254.12 1468.33 Q1254.12 1475.44 1255.93 1479.01 Q1257.76 1482.55 1261.37 1482.55 Q1265 1482.55 1266.81 1479.01 Q1268.64 1475.44 1268.64 1468.33 Q1268.64 1461.2 1266.81 1457.66 Q1265 1454.1 1261.37 1454.1 M1261.37 1450.39 Q1267.18 1450.39 1270.23 1455 Q1273.31 1459.58 1273.31 1468.33 Q1273.31 1477.06 1270.23 1481.67 Q1267.18 1486.25 1261.37 1486.25 Q1255.56 1486.25 1252.48 1481.67 Q1249.42 1477.06 1249.42 1468.33 Q1249.42 1459.58 1252.48 1455 Q1255.56 1450.39 1261.37 1450.39 Z" fill="#000000" fill-rule="nonzero" fill-opacity="1" /><path clip-path="url(#clip850)" d="M1291.53 1454.1 Q1287.92 1454.1 1286.09 1457.66 Q1284.29 1461.2 1284.29 1468.33 Q1284.29 1475.44 1286.09 1479.01 Q1287.92 1482.55 1291.53 1482.55 Q1295.17 1482.55 1296.97 1479.01 Q1298.8 1475.44 1298.8 1468.33 Q1298.8 1461.2 1296.97 1457.66 Q1295.17 1454.1 1291.53 1454.1 M1291.53 1450.39 Q1297.34 1450.39 1300.4 1455 Q1303.48 1459.58 1303.48 1468.33 Q1303.48 1477.06 1300.4 1481.67 Q1297.34 1486.25 1291.53 1486.25 Q1285.72 1486.25 1282.64 1481.67 Q1279.59 1477.06 1279.59 1468.33 Q1279.59 1459.58 1282.64 1455 Q1285.72 1450.39 1291.53 1450.39 Z" fill="#000000" fill-rule="nonzero" fill-opacity="1" /><path clip-path="url(#clip850)" d="M1321.69 1454.1 Q1318.08 1454.1 1316.25 1457.66 Q1314.45 1461.2 1314.45 1468.33 Q1314.45 1475.44 1316.25 1479.01 Q1318.08 1482.55 1321.69 1482.55 Q1325.33 1482.55 1327.13 1479.01 Q1328.96 1475.44 1328.96 1468.33 Q1328.96 1461.2 1327.13 1457.66 Q1325.33 1454.1 1321.69 1454.1 M1321.69 1450.39 Q1327.5 1450.39 1330.56 1455 Q1333.64 1459.58 1333.64 1468.33 Q1333.64 1477.06 1330.56 1481.67 Q1327.5 1486.25 1321.69 1486.25 Q1315.88 1486.25 1312.8 1481.67 Q1309.75 1477.06 1309.75 1468.33 Q1309.75 1459.58 1312.8 1455 Q1315.88 1450.39 1321.69 1450.39 Z" fill="#000000" fill-rule="nonzero" fill-opacity="1" /><path clip-path="url(#clip850)" d="M1759.65 1481.64 L1767.29 1481.64 L1767.29 1455.28 L1758.98 1456.95 L1758.98 1452.69 L1767.24 1451.02 L1771.92 1451.02 L1771.92 1481.64 L1779.56 1481.64 L1779.56 1485.58 L1759.65 1485.58 L1759.65 1481.64 Z" fill="#000000" fill-rule="nonzero" fill-opacity="1" /><path clip-path="url(#clip850)" d="M1789.05 1451.02 L1807.4 1451.02 L1807.4 1454.96 L1793.33 1454.96 L1793.33 1463.43 Q1794.35 1463.08 1795.37 1462.92 Q1796.39 1462.73 1797.4 1462.73 Q1803.19 1462.73 1806.57 1465.9 Q1809.95 1469.08 1809.95 1474.49 Q1809.95 1480.07 1806.48 1483.17 Q1803.01 1486.25 1796.69 1486.25 Q1794.51 1486.25 1792.24 1485.88 Q1790 1485.51 1787.59 1484.77 L1787.59 1480.07 Q1789.67 1481.2 1791.89 1481.76 Q1794.12 1482.32 1796.59 1482.32 Q1800.6 1482.32 1802.94 1480.21 Q1805.27 1478.1 1805.27 1474.49 Q1805.27 1470.88 1802.94 1468.77 Q1800.6 1466.67 1796.59 1466.67 Q1794.72 1466.67 1792.84 1467.08 Q1790.99 1467.5 1789.05 1468.38 L1789.05 1451.02 Z" fill="#000000" fill-rule="nonzero" fill-opacity="1" /><path clip-path="url(#clip850)" d="M1829.16 1454.1 Q1825.55 1454.1 1823.72 1457.66 Q1821.92 1461.2 1821.92 1468.33 Q1821.92 1475.44 1823.72 1479.01 Q1825.55 1482.55 1829.16 1482.55 Q1832.8 1482.55 1834.6 1479.01 Q1836.43 1475.44 1836.43 1468.33 Q1836.43 1461.2 1834.6 1457.66 Q1832.8 1454.1 1829.16 1454.1 M1829.16 1450.39 Q1834.97 1450.39 1838.03 1455 Q1841.11 1459.58 1841.11 1468.33 Q1841.11 1477.06 1838.03 1481.67 Q1834.97 1486.25 1829.16 1486.25 Q1823.35 1486.25 1820.27 1481.67 Q1817.22 1477.06 1817.22 1468.33 Q1817.22 1459.58 1820.27 1455 Q1823.35 1450.39 1829.16 1450.39 Z" fill="#000000" fill-rule="nonzero" fill-opacity="1" /><path clip-path="url(#clip850)" d="M1859.32 1454.1 Q1855.71 1454.1 1853.89 1457.66 Q1852.08 1461.2 1852.08 1468.33 Q1852.08 1475.44 1853.89 1479.01 Q1855.71 1482.55 1859.32 1482.55 Q1862.96 1482.55 1864.76 1479.01 Q1866.59 1475.44 1866.59 1468.33 Q1866.59 1461.2 1864.76 1457.66 Q1862.96 1454.1 1859.32 1454.1 M1859.32 1450.39 Q1865.14 1450.39 1868.19 1455 Q1871.27 1459.58 1871.27 1468.33 Q1871.27 1477.06 1868.19 1481.67 Q1865.14 1486.25 1859.32 1486.25 Q1853.51 1486.25 1850.44 1481.67 Q1847.38 1477.06 1847.38 1468.33 Q1847.38 1459.58 1850.44 1455 Q1853.51 1450.39 1859.32 1450.39 Z" fill="#000000" fill-rule="nonzero" fill-opacity="1" /><path clip-path="url(#clip850)" d="M2301.37 1481.64 L2317.69 1481.64 L2317.69 1485.58 L2295.74 1485.58 L2295.74 1481.64 Q2298.4 1478.89 2302.99 1474.26 Q2307.59 1469.61 2308.77 1468.27 Q2311.02 1465.74 2311.9 1464.01 Q2312.8 1462.25 2312.8 1460.56 Q2312.8 1457.8 2310.86 1456.07 Q2308.94 1454.33 2305.83 1454.33 Q2303.64 1454.33 2301.18 1455.09 Q2298.75 1455.86 2295.97 1457.41 L2295.97 1452.69 Q2298.8 1451.55 2301.25 1450.97 Q2303.71 1450.39 2305.74 1450.39 Q2311.11 1450.39 2314.31 1453.08 Q2317.5 1455.77 2317.5 1460.26 Q2317.5 1462.39 2316.69 1464.31 Q2315.9 1466.2 2313.8 1468.8 Q2313.22 1469.47 2310.12 1472.69 Q2307.02 1475.88 2301.37 1481.64 Z" fill="#000000" fill-rule="nonzero" fill-opacity="1" /><path clip-path="url(#clip850)" d="M2337.5 1454.1 Q2333.89 1454.1 2332.06 1457.66 Q2330.26 1461.2 2330.26 1468.33 Q2330.26 1475.44 2332.06 1479.01 Q2333.89 1482.55 2337.5 1482.55 Q2341.14 1482.55 2342.94 1479.01 Q2344.77 1475.44 2344.77 1468.33 Q2344.77 1461.2 2342.94 1457.66 Q2341.14 1454.1 2337.5 1454.1 M2337.5 1450.39 Q2343.31 1450.39 2346.37 1455 Q2349.45 1459.58 2349.45 1468.33 Q2349.45 1477.06 2346.37 1481.67 Q2343.31 1486.25 2337.5 1486.25 Q2331.69 1486.25 2328.61 1481.67 Q2325.56 1477.06 2325.56 1468.33 Q2325.56 1459.58 2328.61 1455 Q2331.69 1450.39 2337.5 1450.39 Z" fill="#000000" fill-rule="nonzero" fill-opacity="1" /><path clip-path="url(#clip850)" d="M2367.66 1454.1 Q2364.05 1454.1 2362.22 1457.66 Q2360.42 1461.2 2360.42 1468.33 Q2360.42 1475.44 2362.22 1479.01 Q2364.05 1482.55 2367.66 1482.55 Q2371.3 1482.55 2373.1 1479.01 Q2374.93 1475.44 2374.93 1468.33 Q2374.93 1461.2 2373.1 1457.66 Q2371.3 1454.1 2367.66 1454.1 M2367.66 1450.39 Q2373.47 1450.39 2376.53 1455 Q2379.61 1459.58 2379.61 1468.33 Q2379.61 1477.06 2376.53 1481.67 Q2373.47 1486.25 2367.66 1486.25 Q2361.85 1486.25 2358.77 1481.67 Q2355.72 1477.06 2355.72 1468.33 Q2355.72 1459.58 2358.77 1455 Q2361.85 1450.39 2367.66 1450.39 Z" fill="#000000" fill-rule="nonzero" fill-opacity="1" /><path clip-path="url(#clip850)" d="M2397.83 1454.1 Q2394.21 1454.1 2392.39 1457.66 Q2390.58 1461.2 2390.58 1468.33 Q2390.58 1475.44 2392.39 1479.01 Q2394.21 1482.55 2397.83 1482.55 Q2401.46 1482.55 2403.26 1479.01 Q2405.09 1475.44 2405.09 1468.33 Q2405.09 1461.2 2403.26 1457.66 Q2401.46 1454.1 2397.83 1454.1 M2397.83 1450.39 Q2403.64 1450.39 2406.69 1455 Q2409.77 1459.58 2409.77 1468.33 Q2409.77 1477.06 2406.69 1481.67 Q2403.64 1486.25 2397.83 1486.25 Q2392.01 1486.25 2388.94 1481.67 Q2385.88 1477.06 2385.88 1468.33 Q2385.88 1459.58 2388.94 1455 Q2392.01 1450.39 2397.83 1450.39 Z" fill="#000000" fill-rule="nonzero" fill-opacity="1" /><path clip-path="url(#clip850)" d="M1045.62 1524.18 L1045.62 1530.96 Q1042.37 1527.94 1038.68 1526.44 Q1035.02 1524.95 1030.88 1524.95 Q1022.74 1524.95 1018.41 1529.95 Q1014.08 1534.91 1014.08 1544.33 Q1014.08 1553.72 1018.41 1558.72 Q1022.74 1563.68 1030.88 1563.68 Q1035.02 1563.68 1038.68 1562.19 Q1042.37 1560.69 1045.62 1557.67 L1045.62 1564.38 Q1042.25 1566.68 1038.46 1567.82 Q1034.7 1568.97 1030.5 1568.97 Q1019.71 1568.97 1013.51 1562.38 Q1007.3 1555.76 1007.3 1544.33 Q1007.3 1532.87 1013.51 1526.28 Q1019.71 1519.66 1030.5 1519.66 Q1034.77 1519.66 1038.52 1520.81 Q1042.31 1521.92 1045.62 1524.18 Z" fill="#000000" fill-rule="nonzero" fill-opacity="1" /><path clip-path="url(#clip850)" d="M1069.11 1536.5 Q1064.4 1536.5 1061.66 1540.19 Q1058.93 1543.85 1058.93 1550.25 Q1058.93 1556.65 1061.63 1560.34 Q1064.37 1564 1069.11 1564 Q1073.79 1564 1076.53 1560.31 Q1079.26 1556.62 1079.26 1550.25 Q1079.26 1543.92 1076.53 1540.23 Q1073.79 1536.5 1069.11 1536.5 M1069.11 1531.54 Q1076.75 1531.54 1081.11 1536.5 Q1085.47 1541.47 1085.47 1550.25 Q1085.47 1559 1081.11 1564 Q1076.75 1568.97 1069.11 1568.97 Q1061.44 1568.97 1057.08 1564 Q1052.75 1559 1052.75 1550.25 Q1052.75 1541.47 1057.08 1536.5 Q1061.44 1531.54 1069.11 1531.54 Z" fill="#000000" fill-rule="nonzero" fill-opacity="1" /><path clip-path="url(#clip850)" d="M1115.83 1537.87 Q1114.85 1537.3 1113.67 1537.04 Q1112.52 1536.76 1111.12 1536.76 Q1106.16 1536.76 1103.49 1540 Q1100.84 1543.22 1100.84 1549.27 L1100.84 1568.04 L1094.96 1568.04 L1094.96 1532.4 L1100.84 1532.4 L1100.84 1537.93 Q1102.69 1534.69 1105.65 1533.13 Q1108.61 1531.54 1112.84 1531.54 Q1113.45 1531.54 1114.18 1531.63 Q1114.91 1531.7 1115.8 1531.85 L1115.83 1537.87 Z" fill="#000000" fill-rule="nonzero" fill-opacity="1" /><path clip-path="url(#clip850)" d="M1151.04 1548.76 L1151.04 1551.62 L1124.11 1551.62 Q1124.49 1557.67 1127.74 1560.85 Q1131.02 1564 1136.84 1564 Q1140.22 1564 1143.37 1563.17 Q1146.55 1562.35 1149.67 1560.69 L1149.67 1566.23 Q1146.52 1567.57 1143.21 1568.27 Q1139.9 1568.97 1136.49 1568.97 Q1127.96 1568.97 1122.96 1564 Q1118 1559.04 1118 1550.57 Q1118 1541.82 1122.71 1536.69 Q1127.45 1531.54 1135.47 1531.54 Q1142.67 1531.54 1146.84 1536.18 Q1151.04 1540.8 1151.04 1548.76 M1145.18 1547.04 Q1145.12 1542.23 1142.48 1539.37 Q1139.87 1536.5 1135.54 1536.5 Q1130.63 1536.5 1127.67 1539.27 Q1124.75 1542.04 1124.3 1547.07 L1145.18 1547.04 Z" fill="#000000" fill-rule="nonzero" fill-opacity="1" /><path clip-path="url(#clip850)" d="M1202.03 1537.87 Q1201.04 1537.3 1199.86 1537.04 Q1198.72 1536.76 1197.32 1536.76 Q1192.35 1536.76 1189.68 1540 Q1187.03 1543.22 1187.03 1549.27 L1187.03 1568.04 L1181.15 1568.04 L1181.15 1532.4 L1187.03 1532.4 L1187.03 1537.93 Q1188.88 1534.69 1191.84 1533.13 Q1194.8 1531.54 1199.03 1531.54 Q1199.64 1531.54 1200.37 1531.63 Q1201.1 1531.7 1201.99 1531.85 L1202.03 1537.87 Z" fill="#000000" fill-rule="nonzero" fill-opacity="1" /><path clip-path="url(#clip850)" d="M1224.37 1550.12 Q1217.27 1550.12 1214.53 1551.75 Q1211.8 1553.37 1211.8 1557.29 Q1211.8 1560.4 1213.83 1562.25 Q1215.9 1564.07 1219.44 1564.07 Q1224.31 1564.07 1227.23 1560.63 Q1230.19 1557.16 1230.19 1551.43 L1230.19 1550.12 L1224.37 1550.12 M1236.05 1547.71 L1236.05 1568.04 L1230.19 1568.04 L1230.19 1562.63 Q1228.19 1565.88 1225.2 1567.44 Q1222.21 1568.97 1217.88 1568.97 Q1212.4 1568.97 1209.16 1565.91 Q1205.94 1562.82 1205.94 1557.67 Q1205.94 1551.65 1209.95 1548.6 Q1213.99 1545.54 1221.98 1545.54 L1230.19 1545.54 L1230.19 1544.97 Q1230.19 1540.93 1227.52 1538.73 Q1224.88 1536.5 1220.07 1536.5 Q1217.02 1536.5 1214.12 1537.23 Q1211.22 1537.97 1208.55 1539.43 L1208.55 1534.02 Q1211.77 1532.78 1214.79 1532.17 Q1217.81 1531.54 1220.68 1531.54 Q1228.41 1531.54 1232.23 1535.55 Q1236.05 1539.56 1236.05 1547.71 Z" fill="#000000" fill-rule="nonzero" fill-opacity="1" /><path clip-path="url(#clip850)" d="M1271.57 1537.81 L1271.57 1518.52 L1277.43 1518.52 L1277.43 1568.04 L1271.57 1568.04 L1271.57 1562.7 Q1269.73 1565.88 1266.89 1567.44 Q1264.09 1568.97 1260.15 1568.97 Q1253.68 1568.97 1249.61 1563.81 Q1245.57 1558.65 1245.57 1550.25 Q1245.57 1541.85 1249.61 1536.69 Q1253.68 1531.54 1260.15 1531.54 Q1264.09 1531.54 1266.89 1533.1 Q1269.73 1534.62 1271.57 1537.81 M1251.62 1550.25 Q1251.62 1556.71 1254.26 1560.4 Q1256.93 1564.07 1261.58 1564.07 Q1266.22 1564.07 1268.9 1560.4 Q1271.57 1556.71 1271.57 1550.25 Q1271.57 1543.79 1268.9 1540.13 Q1266.22 1536.44 1261.58 1536.44 Q1256.93 1536.44 1254.26 1540.13 Q1251.62 1543.79 1251.62 1550.25 Z" fill="#000000" fill-rule="nonzero" fill-opacity="1" /><path clip-path="url(#clip850)" d="M1289.49 1532.4 L1295.35 1532.4 L1295.35 1568.04 L1289.49 1568.04 L1289.49 1532.4 M1289.49 1518.52 L1295.35 1518.52 L1295.35 1525.93 L1289.49 1525.93 L1289.49 1518.52 Z" fill="#000000" fill-rule="nonzero" fill-opacity="1" /><path clip-path="url(#clip850)" d="M1307 1553.98 L1307 1532.4 L1312.85 1532.4 L1312.85 1553.75 Q1312.85 1558.81 1314.83 1561.36 Q1316.8 1563.87 1320.75 1563.87 Q1325.49 1563.87 1328.23 1560.85 Q1331 1557.83 1331 1552.61 L1331 1532.4 L1336.85 1532.4 L1336.85 1568.04 L1331 1568.04 L1331 1562.57 Q1328.86 1565.82 1326.03 1567.41 Q1323.23 1568.97 1319.51 1568.97 Q1313.36 1568.97 1310.18 1565.15 Q1307 1561.33 1307 1553.98 M1321.73 1531.54 L1321.73 1531.54 Z" fill="#000000" fill-rule="nonzero" fill-opacity="1" /><path clip-path="url(#clip850)" d="M1371.64 1533.45 L1371.64 1538.98 Q1369.16 1537.71 1366.48 1537.07 Q1363.81 1536.44 1360.95 1536.44 Q1356.59 1536.44 1354.39 1537.77 Q1352.23 1539.11 1352.23 1541.79 Q1352.23 1543.82 1353.78 1545 Q1355.34 1546.15 1360.05 1547.2 L1362.06 1547.64 Q1368.3 1548.98 1370.91 1551.43 Q1373.55 1553.85 1373.55 1558.21 Q1373.55 1563.17 1369.6 1566.07 Q1365.69 1568.97 1358.81 1568.97 Q1355.95 1568.97 1352.83 1568.39 Q1349.74 1567.85 1346.3 1566.74 L1346.3 1560.69 Q1349.55 1562.38 1352.7 1563.24 Q1355.85 1564.07 1358.94 1564.07 Q1363.08 1564.07 1365.31 1562.66 Q1367.53 1561.23 1367.53 1558.65 Q1367.53 1556.27 1365.91 1554.99 Q1364.32 1553.72 1358.88 1552.54 L1356.84 1552.07 Q1351.4 1550.92 1348.98 1548.56 Q1346.56 1546.18 1346.56 1542.04 Q1346.56 1537.01 1350.12 1534.27 Q1353.69 1531.54 1360.25 1531.54 Q1363.49 1531.54 1366.36 1532.01 Q1369.22 1532.49 1371.64 1533.45 Z" fill="#000000" fill-rule="nonzero" fill-opacity="1" /><path clip-path="url(#clip850)" d="M1417.66 1518.58 Q1413.4 1525.9 1411.33 1533.06 Q1409.26 1540.23 1409.26 1547.58 Q1409.26 1554.93 1411.33 1562.16 Q1413.43 1569.35 1417.66 1576.64 L1412.57 1576.64 Q1407.8 1569.16 1405.41 1561.93 Q1403.06 1554.71 1403.06 1547.58 Q1403.06 1540.48 1405.41 1533.29 Q1407.77 1526.09 1412.57 1518.58 L1417.66 1518.58 Z" fill="#000000" fill-rule="nonzero" fill-opacity="1" /><path clip-path="url(#clip850)" d="M1428.42 1581.6 L1428.42 1532.4 L1434.28 1532.4 L1434.28 1554.55 Q1434.28 1559.16 1436.48 1561.52 Q1438.67 1563.87 1442.97 1563.87 Q1447.68 1563.87 1450.03 1561.2 Q1452.42 1558.53 1452.42 1553.18 L1452.42 1532.4 L1458.28 1532.4 L1458.28 1559.83 Q1458.28 1561.74 1458.82 1562.66 Q1459.39 1563.56 1460.57 1563.56 Q1460.86 1563.56 1461.37 1563.4 Q1461.87 1563.21 1462.77 1562.82 L1462.77 1567.53 Q1461.46 1568.27 1460.28 1568.62 Q1459.14 1568.97 1458.02 1568.97 Q1455.83 1568.97 1454.52 1567.73 Q1453.22 1566.48 1452.74 1563.94 Q1451.15 1566.45 1448.82 1567.73 Q1446.53 1568.97 1443.41 1568.97 Q1440.17 1568.97 1437.88 1567.73 Q1435.62 1566.48 1434.28 1564 L1434.28 1581.6 L1428.42 1581.6 Z" fill="#000000" fill-rule="nonzero" fill-opacity="1" /><path clip-path="url(#clip850)" d="M1498.25 1539.24 Q1500.45 1535.29 1503.51 1533.41 Q1506.56 1531.54 1510.7 1531.54 Q1516.27 1531.54 1519.29 1535.45 Q1522.32 1539.33 1522.32 1546.53 L1522.32 1568.04 L1516.43 1568.04 L1516.43 1546.72 Q1516.43 1541.59 1514.61 1539.11 Q1512.8 1536.63 1509.08 1536.63 Q1504.52 1536.63 1501.88 1539.65 Q1499.24 1542.68 1499.24 1547.9 L1499.24 1568.04 L1493.35 1568.04 L1493.35 1546.72 Q1493.35 1541.56 1491.54 1539.11 Q1489.72 1536.63 1485.94 1536.63 Q1481.45 1536.63 1478.81 1539.68 Q1476.17 1542.71 1476.17 1547.9 L1476.17 1568.04 L1470.28 1568.04 L1470.28 1532.4 L1476.17 1532.4 L1476.17 1537.93 Q1478.17 1534.66 1480.97 1533.1 Q1483.77 1531.54 1487.62 1531.54 Q1491.51 1531.54 1494.21 1533.51 Q1496.95 1535.48 1498.25 1539.24 Z" fill="#000000" fill-rule="nonzero" fill-opacity="1" /><path clip-path="url(#clip850)" d="M1533.07 1518.58 L1538.17 1518.58 Q1542.94 1526.09 1545.3 1533.29 Q1547.68 1540.48 1547.68 1547.58 Q1547.68 1554.71 1545.3 1561.93 Q1542.94 1569.16 1538.17 1576.64 L1533.07 1576.64 Q1537.31 1569.35 1539.38 1562.16 Q1541.48 1554.93 1541.48 1547.58 Q1541.48 1540.23 1539.38 1533.06 Q1537.31 1525.9 1533.07 1518.58 Z" fill="#000000" fill-rule="nonzero" fill-opacity="1" /><polyline clip-path="url(#clip850)" style="stroke:#000000; stroke-linecap:round; stroke-linejoin:round; stroke-width:4; stroke-opacity:1; fill:none" points="202.227,1423.18 202.227,47.2441 "/>
<polyline clip-path="url(#clip850)" style="stroke:#000000; stroke-linecap:round; stroke-linejoin:round; stroke-width:4; stroke-opacity:1; fill:none" points="2352.76,1423.18 2352.76,47.2441 "/>
<polyline clip-path="url(#clip850)" style="stroke:#000000; stroke-linecap:round; stroke-linejoin:round; stroke-width:4; stroke-opacity:1; fill:none" points="202.227,1423.18 221.125,1423.18 "/>
<polyline clip-path="url(#clip850)" style="stroke:#000000; stroke-linecap:round; stroke-linejoin:round; stroke-width:4; stroke-opacity:1; fill:none" points="202.227,1147.99 221.125,1147.99 "/>
<polyline clip-path="url(#clip850)" style="stroke:#000000; stroke-linecap:round; stroke-linejoin:round; stroke-width:4; stroke-opacity:1; fill:none" points="202.227,872.806 221.125,872.806 "/>
<polyline clip-path="url(#clip850)" style="stroke:#000000; stroke-linecap:round; stroke-linejoin:round; stroke-width:4; stroke-opacity:1; fill:none" points="202.227,597.618 221.125,597.618 "/>
<polyline clip-path="url(#clip850)" style="stroke:#000000; stroke-linecap:round; stroke-linejoin:round; stroke-width:4; stroke-opacity:1; fill:none" points="202.227,322.431 221.125,322.431 "/>
<polyline clip-path="url(#clip850)" style="stroke:#000000; stroke-linecap:round; stroke-linejoin:round; stroke-width:4; stroke-opacity:1; fill:none" points="202.227,47.2441 221.125,47.2441 "/>
<polyline clip-path="url(#clip850)" style="stroke:#000000; stroke-linecap:round; stroke-linejoin:round; stroke-width:4; stroke-opacity:1; fill:none" points="2352.76,1423.18 2333.86,1423.18 "/>
<polyline clip-path="url(#clip850)" style="stroke:#000000; stroke-linecap:round; stroke-linejoin:round; stroke-width:4; stroke-opacity:1; fill:none" points="2352.76,1147.99 2333.86,1147.99 "/>
<polyline clip-path="url(#clip850)" style="stroke:#000000; stroke-linecap:round; stroke-linejoin:round; stroke-width:4; stroke-opacity:1; fill:none" points="2352.76,872.806 2333.86,872.806 "/>
<polyline clip-path="url(#clip850)" style="stroke:#000000; stroke-linecap:round; stroke-linejoin:round; stroke-width:4; stroke-opacity:1; fill:none" points="2352.76,597.618 2333.86,597.618 "/>
<polyline clip-path="url(#clip850)" style="stroke:#000000; stroke-linecap:round; stroke-linejoin:round; stroke-width:4; stroke-opacity:1; fill:none" points="2352.76,322.431 2333.86,322.431 "/>
<polyline clip-path="url(#clip850)" style="stroke:#000000; stroke-linecap:round; stroke-linejoin:round; stroke-width:4; stroke-opacity:1; fill:none" points="2352.76,47.2441 2333.86,47.2441 "/>
<path clip-path="url(#clip850)" d="M154.283 1408.98 Q150.672 1408.98 148.843 1412.54 Q147.038 1416.08 147.038 1423.21 Q147.038 1430.32 148.843 1433.89 Q150.672 1437.43 154.283 1437.43 Q157.917 1437.43 159.723 1433.89 Q161.552 1430.32 161.552 1423.21 Q161.552 1416.08 159.723 1412.54 Q157.917 1408.98 154.283 1408.98 M154.283 1405.27 Q160.093 1405.27 163.149 1409.88 Q166.227 1414.46 166.227 1423.21 Q166.227 1431.94 163.149 1436.55 Q160.093 1441.13 154.283 1441.13 Q148.473 1441.13 145.394 1436.55 Q142.339 1431.94 142.339 1423.21 Q142.339 1414.46 145.394 1409.88 Q148.473 1405.27 154.283 1405.27 Z" fill="#000000" fill-rule="nonzero" fill-opacity="1" /><path clip-path="url(#clip850)" d="M149.908 1161.34 L166.227 1161.34 L166.227 1165.27 L144.283 1165.27 L144.283 1161.34 Q146.945 1158.58 151.528 1153.95 Q156.135 1149.3 157.315 1147.96 Q159.561 1145.43 160.44 1143.7 Q161.343 1141.94 161.343 1140.25 Q161.343 1137.5 159.399 1135.76 Q157.478 1134.02 154.376 1134.02 Q152.177 1134.02 149.723 1134.79 Q147.292 1135.55 144.515 1137.1 L144.515 1132.38 Q147.339 1131.25 149.792 1130.67 Q152.246 1130.09 154.283 1130.09 Q159.653 1130.09 162.848 1132.77 Q166.042 1135.46 166.042 1139.95 Q166.042 1142.08 165.232 1144 Q164.445 1145.9 162.339 1148.49 Q161.76 1149.16 158.658 1152.38 Q155.556 1155.57 149.908 1161.34 Z" fill="#000000" fill-rule="nonzero" fill-opacity="1" /><path clip-path="url(#clip850)" d="M156.644 859.6 L144.839 878.049 L156.644 878.049 L156.644 859.6 M155.417 855.526 L161.297 855.526 L161.297 878.049 L166.227 878.049 L166.227 881.937 L161.297 881.937 L161.297 890.086 L156.644 890.086 L156.644 881.937 L141.042 881.937 L141.042 877.424 L155.417 855.526 Z" fill="#000000" fill-rule="nonzero" fill-opacity="1" /><path clip-path="url(#clip850)" d="M154.7 595.755 Q151.552 595.755 149.7 597.908 Q147.871 600.061 147.871 603.81 Q147.871 607.537 149.7 609.713 Q151.552 611.866 154.7 611.866 Q157.848 611.866 159.677 609.713 Q161.528 607.537 161.528 603.81 Q161.528 600.061 159.677 597.908 Q157.848 595.755 154.7 595.755 M163.982 581.102 L163.982 585.362 Q162.223 584.528 160.417 584.088 Q158.635 583.649 156.876 583.649 Q152.246 583.649 149.792 586.774 Q147.362 589.899 147.015 596.218 Q148.38 594.204 150.441 593.139 Q152.501 592.051 154.978 592.051 Q160.186 592.051 163.195 595.223 Q166.227 598.371 166.227 603.81 Q166.227 609.135 163.079 612.352 Q159.931 615.57 154.7 615.57 Q148.704 615.57 145.533 610.986 Q142.362 606.38 142.362 597.653 Q142.362 589.459 146.251 584.598 Q150.14 579.713 156.69 579.713 Q158.45 579.713 160.232 580.061 Q162.038 580.408 163.982 581.102 Z" fill="#000000" fill-rule="nonzero" fill-opacity="1" /><path clip-path="url(#clip850)" d="M154.376 323.299 Q151.042 323.299 149.121 325.082 Q147.223 326.864 147.223 329.989 Q147.223 333.114 149.121 334.896 Q151.042 336.679 154.376 336.679 Q157.709 336.679 159.63 334.896 Q161.552 333.091 161.552 329.989 Q161.552 326.864 159.63 325.082 Q157.732 323.299 154.376 323.299 M149.7 321.309 Q146.691 320.568 145.001 318.508 Q143.334 316.447 143.334 313.485 Q143.334 309.341 146.274 306.934 Q149.237 304.526 154.376 304.526 Q159.538 304.526 162.477 306.934 Q165.417 309.341 165.417 313.485 Q165.417 316.447 163.727 318.508 Q162.061 320.568 159.075 321.309 Q162.454 322.096 164.329 324.387 Q166.227 326.679 166.227 329.989 Q166.227 335.012 163.149 337.697 Q160.093 340.383 154.376 340.383 Q148.658 340.383 145.579 337.697 Q142.524 335.012 142.524 329.989 Q142.524 326.679 144.422 324.387 Q146.32 322.096 149.7 321.309 M147.987 313.924 Q147.987 316.61 149.653 318.114 Q151.343 319.619 154.376 319.619 Q157.385 319.619 159.075 318.114 Q160.788 316.61 160.788 313.924 Q160.788 311.239 159.075 309.735 Q157.385 308.23 154.376 308.23 Q151.343 308.23 149.653 309.735 Q147.987 311.239 147.987 313.924 Z" fill="#000000" fill-rule="nonzero" fill-opacity="1" /><path clip-path="url(#clip850)" d="M114.931 60.5889 L122.57 60.5889 L122.57 34.2233 L114.26 35.89 L114.26 31.6308 L122.524 29.9641 L127.2 29.9641 L127.2 60.5889 L134.839 60.5889 L134.839 64.5241 L114.931 64.5241 L114.931 60.5889 Z" fill="#000000" fill-rule="nonzero" fill-opacity="1" /><path clip-path="url(#clip850)" d="M154.283 33.0428 Q150.672 33.0428 148.843 36.6076 Q147.038 40.1492 147.038 47.2788 Q147.038 54.3853 148.843 57.9501 Q150.672 61.4917 154.283 61.4917 Q157.917 61.4917 159.723 57.9501 Q161.552 54.3853 161.552 47.2788 Q161.552 40.1492 159.723 36.6076 Q157.917 33.0428 154.283 33.0428 M154.283 29.3391 Q160.093 29.3391 163.149 33.9456 Q166.227 38.5289 166.227 47.2788 Q166.227 56.0056 163.149 60.6121 Q160.093 65.1954 154.283 65.1954 Q148.473 65.1954 145.394 60.6121 Q142.339 56.0056 142.339 47.2788 Q142.339 38.5289 145.394 33.9456 Q148.473 29.3391 154.283 29.3391 Z" fill="#000000" fill-rule="nonzero" fill-opacity="1" /><path clip-path="url(#clip850)" d="M20.1444 807.24 L26.9239 807.24 Q23.9002 810.486 22.4043 814.179 Q20.9083 817.839 20.9083 821.977 Q20.9083 830.125 25.9054 834.453 Q30.8707 838.782 40.2919 838.782 Q49.6813 838.782 54.6784 834.453 Q59.6436 830.125 59.6436 821.977 Q59.6436 817.839 58.1477 814.179 Q56.6518 810.486 53.6281 807.24 L60.3439 807.24 Q62.6355 810.614 63.7814 814.401 Q64.9272 818.157 64.9272 822.358 Q64.9272 833.148 58.3387 839.355 Q51.7183 845.561 40.2919 845.561 Q28.8336 845.561 22.2451 839.355 Q15.6248 833.148 15.6248 822.358 Q15.6248 818.093 16.7706 814.338 Q17.8846 810.55 20.1444 807.24 Z" fill="#000000" fill-rule="nonzero" fill-opacity="1" /><path clip-path="url(#clip850)" d="M32.4621 783.75 Q32.4621 788.461 36.1542 791.198 Q39.8145 793.936 46.212 793.936 Q52.6095 793.936 56.3017 791.23 Q59.9619 788.493 59.9619 783.75 Q59.9619 779.072 56.2698 776.334 Q52.5777 773.597 46.212 773.597 Q39.8781 773.597 36.186 776.334 Q32.4621 779.072 32.4621 783.75 M27.4968 783.75 Q27.4968 776.112 32.4621 771.751 Q37.4273 767.391 46.212 767.391 Q54.9649 767.391 59.9619 771.751 Q64.9272 776.112 64.9272 783.75 Q64.9272 791.421 59.9619 795.782 Q54.9649 800.11 46.212 800.11 Q37.4273 800.11 32.4621 795.782 Q27.4968 791.421 27.4968 783.75 Z" fill="#000000" fill-rule="nonzero" fill-opacity="1" /><path clip-path="url(#clip850)" d="M49.9359 758.288 L28.3562 758.288 L28.3562 752.431 L49.7131 752.431 Q54.7739 752.431 57.3202 750.458 Q59.8346 748.484 59.8346 744.538 Q59.8346 739.795 56.8109 737.058 Q53.7872 734.289 48.5673 734.289 L28.3562 734.289 L28.3562 728.432 L64.0042 728.432 L64.0042 734.289 L58.5296 734.289 Q61.7762 736.421 63.3676 739.254 Q64.9272 742.055 64.9272 745.779 Q64.9272 751.922 61.1078 755.105 Q57.2883 758.288 49.9359 758.288 M27.4968 743.551 L27.4968 743.551 Z" fill="#000000" fill-rule="nonzero" fill-opacity="1" /><path clip-path="url(#clip850)" d="M42.4881 686.737 L64.0042 686.737 L64.0042 692.594 L42.679 692.594 Q37.6183 692.594 35.1038 694.567 Q32.5894 696.54 32.5894 700.487 Q32.5894 705.229 35.6131 707.967 Q38.6368 710.704 43.8567 710.704 L64.0042 710.704 L64.0042 716.592 L28.3562 716.592 L28.3562 710.704 L33.8944 710.704 Q30.6797 708.603 29.0883 705.771 Q27.4968 702.906 27.4968 699.182 Q27.4968 693.039 31.3163 689.888 Q35.1038 686.737 42.4881 686.737 Z" fill="#000000" fill-rule="nonzero" fill-opacity="1" /><path clip-path="url(#clip850)" d="M18.2347 669.263 L28.3562 669.263 L28.3562 657.2 L32.9077 657.2 L32.9077 669.263 L52.2594 669.263 Q56.6199 669.263 57.8613 668.086 Q59.1026 666.876 59.1026 663.216 L59.1026 657.2 L64.0042 657.2 L64.0042 663.216 Q64.0042 669.995 61.4897 672.573 Q58.9434 675.152 52.2594 675.152 L32.9077 675.152 L32.9077 679.448 L28.3562 679.448 L28.3562 675.152 L18.2347 675.152 L18.2347 669.263 Z" fill="#000000" fill-rule="nonzero" fill-opacity="1" /><path clip-path="url(#clip850)" d="M29.4065 626.772 L34.9447 626.772 Q33.6716 629.255 33.035 631.928 Q32.3984 634.602 32.3984 637.467 Q32.3984 641.827 33.7352 644.023 Q35.072 646.188 37.7456 646.188 Q39.7826 646.188 40.9603 644.628 Q42.1061 643.068 43.1565 638.358 L43.6021 636.353 Q44.9389 630.114 47.3897 627.504 Q49.8086 624.862 54.1691 624.862 Q59.1344 624.862 62.0308 628.809 Q64.9272 632.724 64.9272 639.599 Q64.9272 642.464 64.3543 645.583 Q63.8132 648.67 62.6992 652.108 L56.6518 652.108 Q58.3387 648.861 59.198 645.71 Q60.0256 642.559 60.0256 639.472 Q60.0256 635.334 58.6251 633.106 Q57.1929 630.878 54.6147 630.878 Q52.2276 630.878 50.9545 632.501 Q49.6813 634.093 48.5037 639.535 L48.0262 641.572 Q46.8804 647.015 44.5251 649.434 Q42.138 651.853 38.0002 651.853 Q32.9713 651.853 30.2341 648.288 Q27.4968 644.723 27.4968 638.167 Q27.4968 634.92 27.9743 632.056 Q28.4517 629.191 29.4065 626.772 Z" fill="#000000" fill-rule="nonzero" fill-opacity="1" /><path clip-path="url(#clip852)" d="M1169.97 1423.18 L1169.97 1423.18 L1223.73 1423.18 L1223.73 1423.18 L1169.97 1423.18 L1169.97 1423.18  Z" fill="#009af9" fill-rule="evenodd" fill-opacity="1"/>
<polyline clip-path="url(#clip852)" style="stroke:#000000; stroke-linecap:round; stroke-linejoin:round; stroke-width:4; stroke-opacity:1; fill:none" points="1169.97,1423.18 1169.97,1423.18 1223.73,1423.18 1169.97,1423.18 "/>
<path clip-path="url(#clip852)" d="M1223.73 1147.99 L1223.73 1423.18 L1277.49 1423.18 L1277.49 1147.99 L1223.73 1147.99 L1223.73 1147.99  Z" fill="#009af9" fill-rule="evenodd" fill-opacity="1"/>
<polyline clip-path="url(#clip852)" style="stroke:#000000; stroke-linecap:round; stroke-linejoin:round; stroke-width:4; stroke-opacity:1; fill:none" points="1223.73,1147.99 1223.73,1423.18 1277.49,1423.18 1277.49,1147.99 1223.73,1147.99 "/>
<path clip-path="url(#clip852)" d="M1277.49 1423.18 L1277.49 1423.18 L1331.25 1423.18 L1331.25 1423.18 L1277.49 1423.18 L1277.49 1423.18  Z" fill="#009af9" fill-rule="evenodd" fill-opacity="1"/>
<polyline clip-path="url(#clip852)" style="stroke:#000000; stroke-linecap:round; stroke-linejoin:round; stroke-width:4; stroke-opacity:1; fill:none" points="1277.49,1423.18 1277.49,1423.18 1331.25,1423.18 1277.49,1423.18 "/>
<path clip-path="url(#clip852)" d="M1331.25 1010.4 L1331.25 1423.18 L1385.02 1423.18 L1385.02 1010.4 L1331.25 1010.4 L1331.25 1010.4  Z" fill="#009af9" fill-rule="evenodd" fill-opacity="1"/>
<polyline clip-path="url(#clip852)" style="stroke:#000000; stroke-linecap:round; stroke-linejoin:round; stroke-width:4; stroke-opacity:1; fill:none" points="1331.25,1010.4 1331.25,1423.18 1385.02,1423.18 1385.02,1010.4 1331.25,1010.4 "/>
<path clip-path="url(#clip852)" d="M1385.02 1010.4 L1385.02 1423.18 L1438.78 1423.18 L1438.78 1010.4 L1385.02 1010.4 L1385.02 1010.4  Z" fill="#009af9" fill-rule="evenodd" fill-opacity="1"/>
<polyline clip-path="url(#clip852)" style="stroke:#000000; stroke-linecap:round; stroke-linejoin:round; stroke-width:4; stroke-opacity:1; fill:none" points="1385.02,1010.4 1385.02,1423.18 1438.78,1423.18 1438.78,1010.4 1385.02,1010.4 "/>
<path clip-path="url(#clip852)" d="M1438.78 460.025 L1438.78 1423.18 L1492.54 1423.18 L1492.54 460.025 L1438.78 460.025 L1438.78 460.025  Z" fill="#009af9" fill-rule="evenodd" fill-opacity="1"/>
<polyline clip-path="url(#clip852)" style="stroke:#000000; stroke-linecap:round; stroke-linejoin:round; stroke-width:4; stroke-opacity:1; fill:none" points="1438.78,460.025 1438.78,1423.18 1492.54,1423.18 1492.54,460.025 1438.78,460.025 "/>
<path clip-path="url(#clip852)" d="M1492.54 47.2441 L1492.54 1423.18 L1546.31 1423.18 L1546.31 47.2441 L1492.54 47.2441 L1492.54 47.2441  Z" fill="#009af9" fill-rule="evenodd" fill-opacity="1"/>
<polyline clip-path="url(#clip852)" style="stroke:#000000; stroke-linecap:round; stroke-linejoin:round; stroke-width:4; stroke-opacity:1; fill:none" points="1492.54,47.2441 1492.54,1423.18 1546.31,1423.18 1546.31,47.2441 1492.54,47.2441 "/>
<path clip-path="url(#clip852)" d="M1546.31 597.618 L1546.31 1423.18 L1600.07 1423.18 L1600.07 597.618 L1546.31 597.618 L1546.31 597.618  Z" fill="#009af9" fill-rule="evenodd" fill-opacity="1"/>
<polyline clip-path="url(#clip852)" style="stroke:#000000; stroke-linecap:round; stroke-linejoin:round; stroke-width:4; stroke-opacity:1; fill:none" points="1546.31,597.618 1546.31,1423.18 1600.07,1423.18 1600.07,597.618 1546.31,597.618 "/>
<path clip-path="url(#clip852)" d="M1600.07 1147.99 L1600.07 1423.18 L1653.83 1423.18 L1653.83 1147.99 L1600.07 1147.99 L1600.07 1147.99  Z" fill="#009af9" fill-rule="evenodd" fill-opacity="1"/>
<polyline clip-path="url(#clip852)" style="stroke:#000000; stroke-linecap:round; stroke-linejoin:round; stroke-width:4; stroke-opacity:1; fill:none" points="1600.07,1147.99 1600.07,1423.18 1653.83,1423.18 1653.83,1147.99 1600.07,1147.99 "/>
<path clip-path="url(#clip852)" d="M1653.83 1285.59 L1653.83 1423.18 L1707.6 1423.18 L1707.6 1285.59 L1653.83 1285.59 L1653.83 1285.59  Z" fill="#009af9" fill-rule="evenodd" fill-opacity="1"/>
<polyline clip-path="url(#clip852)" style="stroke:#000000; stroke-linecap:round; stroke-linejoin:round; stroke-width:4; stroke-opacity:1; fill:none" points="1653.83,1285.59 1653.83,1423.18 1707.6,1423.18 1707.6,1285.59 1653.83,1285.59 "/>
<path clip-path="url(#clip852)" d="M1707.6 1147.99 L1707.6 1423.18 L1761.36 1423.18 L1761.36 1147.99 L1707.6 1147.99 L1707.6 1147.99  Z" fill="#009af9" fill-rule="evenodd" fill-opacity="1"/>
<polyline clip-path="url(#clip852)" style="stroke:#000000; stroke-linecap:round; stroke-linejoin:round; stroke-width:4; stroke-opacity:1; fill:none" points="1707.6,1147.99 1707.6,1423.18 1761.36,1423.18 1761.36,1147.99 1707.6,1147.99 "/>
<path clip-path="url(#clip852)" d="M1761.36 1285.59 L1761.36 1423.18 L1815.12 1423.18 L1815.12 1285.59 L1761.36 1285.59 L1761.36 1285.59  Z" fill="#009af9" fill-rule="evenodd" fill-opacity="1"/>
<polyline clip-path="url(#clip852)" style="stroke:#000000; stroke-linecap:round; stroke-linejoin:round; stroke-width:4; stroke-opacity:1; fill:none" points="1761.36,1285.59 1761.36,1423.18 1815.12,1423.18 1815.12,1285.59 1761.36,1285.59 "/>
<path clip-path="url(#clip852)" d="M1815.12 1285.59 L1815.12 1423.18 L1868.89 1423.18 L1868.89 1285.59 L1815.12 1285.59 L1815.12 1285.59  Z" fill="#009af9" fill-rule="evenodd" fill-opacity="1"/>
<polyline clip-path="url(#clip852)" style="stroke:#000000; stroke-linecap:round; stroke-linejoin:round; stroke-width:4; stroke-opacity:1; fill:none" points="1815.12,1285.59 1815.12,1423.18 1868.89,1423.18 1868.89,1285.59 1815.12,1285.59 "/>
<path clip-path="url(#clip852)" d="M1868.89 1423.18 L1868.89 1423.18 L1922.65 1423.18 L1922.65 1423.18 L1868.89 1423.18 L1868.89 1423.18  Z" fill="#009af9" fill-rule="evenodd" fill-opacity="1"/>
<polyline clip-path="url(#clip852)" style="stroke:#000000; stroke-linecap:round; stroke-linejoin:round; stroke-width:4; stroke-opacity:1; fill:none" points="1868.89,1423.18 1868.89,1423.18 1922.65,1423.18 1868.89,1423.18 "/>
<circle clip-path="url(#clip852)" style="fill:#009af9; stroke:none; fill-opacity:0" cx="1196.85" cy="1423.18" r="2"/>
<circle clip-path="url(#clip852)" style="fill:#009af9; stroke:none; fill-opacity:0" cx="1250.61" cy="1147.99" r="2"/>
<circle clip-path="url(#clip852)" style="fill:#009af9; stroke:none; fill-opacity:0" cx="1304.37" cy="1423.18" r="2"/>
<circle clip-path="url(#clip852)" style="fill:#009af9; stroke:none; fill-opacity:0" cx="1358.14" cy="1010.4" r="2"/>
<circle clip-path="url(#clip852)" style="fill:#009af9; stroke:none; fill-opacity:0" cx="1411.9" cy="1010.4" r="2"/>
<circle clip-path="url(#clip852)" style="fill:#009af9; stroke:none; fill-opacity:0" cx="1465.66" cy="460.025" r="2"/>
<circle clip-path="url(#clip852)" style="fill:#009af9; stroke:none; fill-opacity:0" cx="1519.43" cy="47.2441" r="2"/>
<circle clip-path="url(#clip852)" style="fill:#009af9; stroke:none; fill-opacity:0" cx="1573.19" cy="597.618" r="2"/>
<circle clip-path="url(#clip852)" style="fill:#009af9; stroke:none; fill-opacity:0" cx="1626.95" cy="1147.99" r="2"/>
<circle clip-path="url(#clip852)" style="fill:#009af9; stroke:none; fill-opacity:0" cx="1680.72" cy="1285.59" r="2"/>
<circle clip-path="url(#clip852)" style="fill:#009af9; stroke:none; fill-opacity:0" cx="1734.48" cy="1147.99" r="2"/>
<circle clip-path="url(#clip852)" style="fill:#009af9; stroke:none; fill-opacity:0" cx="1788.24" cy="1285.59" r="2"/>
<circle clip-path="url(#clip852)" style="fill:#009af9; stroke:none; fill-opacity:0" cx="1842.01" cy="1285.59" r="2"/>
<circle clip-path="url(#clip852)" style="fill:#009af9; stroke:none; fill-opacity:0" cx="1895.77" cy="1423.18" r="2"/>
</svg>
